2200 0 2 0           
15 SolidWorks 2017 12 ACIS 22.0 NT 24 Sun Nov 04 21:11:46 2018 
1 9.9999999999999995e-007 1e-010 
-0 body $2 -1 -1 $-1 $3 $-1 $-1 F #
-1 body $4 -1 -1 $-1 $5 $-1 $-1 F #
-2 name_attrib-gen-attrib $-1 -1 $-1 $-1 $0 2 1 1 1 1 1 1 1 1 1 1 1 1 1 0 1 1 1 @20 Suction Cup End Tool #
-3 lump $6 -1 -1 $-1 $-1 $7 $0 F #
-4 name_attrib-gen-attrib $-1 -1 $-1 $-1 $1 2 1 1 1 1 1 1 1 1 1 1 1 1 1 0 1 1 1 @4 Tool #
-5 lump $8 -1 -1 $-1 $-1 $9 $1 F #
-6 rgb_color-st-attrib $-1 -1 $-1 $-1 $3 2 1 2 1 1 1 1 1 1 1 1 1 1 1 0 1 1 1 1 1 1 #
-7 shell $-1 -1 -1 $-1 $-1 $-1 $10 $-1 $3 F #
-8 rgb_color-st-attrib $-1 -1 $-1 $-1 $5 2 1 2 1 1 1 1 1 1 1 1 1 1 1 0 1 1 1 0.792156862745098 0.81960784313725488 0.93333333333333335 #
-9 shell $-1 -1 -1 $-1 $-1 $-1 $11 $-1 $5 F #
-10 face $12 -1 -1 $-1 $13 $14 $7 $-1 $15 forward single F T -1.7651201444519744 0 0 3.1415926535897931 #
-11 face $16 -1 -1 $-1 $17 $18 $9 $-1 $19 forward single F T 0 0.25000000000000006 0 3.1415926535897931 #
-12 integer_attrib-name_attrib-gen-attrib $-1 -1 $20 $-1 $10 2 1 2 1 1 1 1 1 1 1 1 1 1 1 0 1 1 1 @13 Boss-Extrude1 0 #
-13 face $21 -1 -1 $-1 $22 $23 $7 $-1 $24 forward single F T -1.7651201444519744 0 -3.1415926535897931 0 #
-14 loop $-1 -1 -1 $-1 $-1 $25 $10 F unknown #
-15 cone-surface $-1 -1 -1 $-1 0.30405133842121079 0.97385814251089819 18.964388203991231 -0 -1 -0 0 0 7.5 1 I I 0.18892405598412157 0.98199170112099654 7.5 forward I I I I #
-16 integer_attrib-name_attrib-gen-attrib $-1 -1 $26 $-1 $11 2 1 2 1 1 1 1 1 1 1 1 1 1 1 0 1 1 1 @13 Boss-Extrude3 0 #
-17 face $27 -1 -1 $-1 $28 $29 $9 $-1 $30 forward single F T 0 2.3999999999999999 0 3.1415926535897931 #
-18 loop $-1 -1 -1 $-1 $-1 $31 $11 F unknown #
-19 cone-surface $-1 -1 -1 $-1 0.30405133842121779 53.973858142510899 18.964388203991223 0 1 0 10.938882772079772 0 -16.743382086624443 1 I I 0 1 19.999999999999996 forward I I I I #
-20 rgb_color-st-attrib $-1 -1 $-1 $12 $10 2 1 2 1 1 1 1 1 1 1 1 1 1 1 0 1 1 1 1 1 1 #
-21 integer_attrib-name_attrib-gen-attrib $-1 -1 $32 $-1 $13 2 1 2 1 1 1 1 1 1 1 1 1 1 1 0 1 1 1 @13 Boss-Extrude1 0 #
-22 face $33 -1 -1 $-1 $34 $35 $7 $-1 $36 forward single F F #
-23 loop $-1 -1 -1 $-1 $-1 $37 $13 F unknown #
-24 cone-surface $-1 -1 -1 $-1 0.30405133842121079 0.97385814251089819 18.964388203991231 -0 -1 -0 0 0 7.5 1 I I 0.18892405598412157 0.98199170112099654 7.5 forward I I I I #
-25 coedge $-1 -1 -1 $-1 $38 $39 $40 $41 reversed $14 $-1 #
-26 rgb_color-st-attrib $-1 -1 $-1 $16 $11 2 1 2 1 1 1 1 1 1 1 1 1 1 1 0 1 1 1 0.20000000000000001 0.20000000000000001 0.20000000000000001 #
-27 integer_attrib-name_attrib-gen-attrib $-1 -1 $42 $-1 $17 2 1 2 1 1 1 1 1 1 1 1 1 1 1 0 1 1 1 @13 Boss-Extrude3 0 #
-28 face $43 -1 -1 $-1 $44 $45 $9 $-1 $46 forward single F T 0 3.2000000000000002 0 3.1415926535897931 #
-29 loop $-1 -1 -1 $-1 $-1 $47 $17 F unknown #
-30 cone-surface $-1 -1 -1 $-1 0.30405133842121779 29.973858142510899 18.964388203991223 0 1 0 5.4694413860398869 0 -8.3716910433122234 1 I I 0 1 10 forward I I I I #
-31 coedge $-1 -1 -1 $-1 $48 $49 $50 $51 reversed $18 $-1 #
-32 rgb_color-st-attrib $-1 -1 $-1 $21 $13 2 1 2 1 1 1 1 1 1 1 1 1 1 1 0 1 1 1 1 1 1 #
-33 integer_attrib-name_attrib-gen-attrib $-1 -1 $-1 $-1 $22 2 1 2 1 1 1 1 1 1 1 1 1 1 1 0 1 1 1 @13 Boss-Extrude1 0 #
-34 face $52 -1 -1 $-1 $-1 $53 $7 $-1 $54 reversed single F F #
-35 loop $-1 -1 -1 $-1 $-1 $55 $22 F unknown #
-36 plane-surface $-1 -1 -1 $-1 0.30405133842121079 13.973858142510899 18.964388203991231 0 1 0 0 0 1000 forward_v I I I I #
-37 coedge $-1 -1 -1 $-1 $56 $57 $38 $58 reversed $23 $-1 #
-38 coedge $-1 -1 -1 $-1 $59 $25 $37 $58 forward $14 $-1 #
-39 coedge $-1 -1 -1 $-1 $25 $59 $60 $61 reversed $14 $-1 #
-40 coedge $-1 -1 -1 $-1 $55 $55 $25 $41 forward $35 $-1 #
-41 edge $-1 -1 -1 $-1 $62 -3.1415926535897931 $63 0 $40 $64 forward @7 unknown F #
-42 rgb_color-st-attrib $-1 -1 $-1 $27 $17 2 1 2 1 1 1 1 1 1 1 1 1 1 1 0 1 1 1 1 1 1 #
-43 integer_attrib-name_attrib-gen-attrib $-1 -1 $65 $-1 $28 2 1 2 1 1 1 1 1 1 1 1 1 1 1 0 1 1 1 @13 Boss-Extrude3 0 #
-44 face $66 -1 -1 $-1 $67 $68 $9 $-1 $69 forward single F T 0 3.2000000000000002 -3.1415926535897931 0 #
-45 loop $-1 -1 -1 $-1 $-1 $70 $28 F unknown #
-46 cone-surface $-1 -1 -1 $-1 0.30405133842121779 13.973858142510899 18.964388203991223 0 1 0 2.7347206930199435 0 -4.1858455216561117 1 I I 0 1 5 forward I I I I #
-47 coedge $-1 -1 -1 $-1 $71 $72 $73 $74 reversed $29 $-1 #
-48 coedge $-1 -1 -1 $-1 $75 $31 $76 $77 forward $18 $-1 #
-49 coedge $-1 -1 -1 $-1 $31 $75 $78 $79 reversed $18 $-1 #
-50 coedge $-1 -1 -1 $-1 $80 $80 $31 $51 forward $81 $-1 #
-51 edge $-1 -1 -1 $-1 $82 -1.4210854715202002e-016 $83 3.1415926535897931 $50 $84 forward @7 unknown F #
-52 integer_attrib-name_attrib-gen-attrib $-1 -1 $-1 $-1 $34 2 1 2 1 1 1 1 1 1 1 1 1 1 1 0 1 1 1 @13 Boss-Extrude1 0 #
-53 loop $-1 -1 -1 $-1 $-1 $85 $34 F unknown #
-54 plane-surface $-1 -1 -1 $-1 0.30405133842121079 0.97385814251089819 18.964388203991231 0 1 0 0 0 1000 forward_v I I I I #
-55 coedge $-1 -1 -1 $-1 $40 $40 $56 $86 forward $35 $-1 #
-56 coedge $-1 -1 -1 $-1 $60 $37 $55 $86 reversed $23 $-1 #
-57 coedge $-1 -1 -1 $-1 $37 $60 $85 $87 forward $23 $-1 #
-58 edge $-1 -1 -1 $-1 $62 -0.013238401083389806 $88 -0 $38 $89 forward @7 unknown F #
-59 coedge $-1 -1 -1 $-1 $39 $38 $90 $91 forward $14 $-1 #
-60 coedge $-1 -1 -1 $-1 $57 $56 $39 $61 forward $23 $-1 #
-61 edge $-1 -1 -1 $-1 $63 -0.013238401083389806 $92 0 $60 $93 forward @7 unknown F #
-62 vertex $-1 -1 -1 $-1 $58 $94 #
-63 vertex $-1 -1 -1 $-1 $41 $95 #
-64 ellipse-curve $-1 -1 -1 $-1 0.30405133842121079 13.973858142510899 18.964388203991231 0 1 0 0 0 4.9989475725814083 1 I I #
-65 rgb_color-st-attrib $-1 -1 $-1 $43 $28 2 1 2 1 1 1 1 1 1 1 1 1 1 1 0 1 1 1 1 1 1 #
-66 integer_attrib-name_attrib-gen-attrib $-1 -1 $96 $-1 $44 2 1 2 1 1 1 1 1 1 1 1 1 1 1 0 1 1 1 @13 Boss-Extrude3 0 #
-67 face $97 -1 -1 $-1 $98 $99 $9 $-1 $100 forward single F F #
-68 loop $-1 -1 -1 $-1 $-1 $101 $44 F unknown #
-69 cone-surface $-1 -1 -1 $-1 0.30405133842121779 13.973858142510899 18.964388203991223 0 1 0 2.7347206930199435 0 -4.1858455216561117 1 I I 0 1 5 forward I I I I #
-70 coedge $-1 -1 -1 $-1 $102 $103 $104 $105 reversed $45 $-1 #
-71 coedge $-1 -1 -1 $-1 $106 $47 $107 $108 forward $29 $-1 #
-72 coedge $-1 -1 -1 $-1 $47 $106 $109 $110 reversed $29 $-1 #
-73 coedge $-1 -1 -1 $-1 $111 $111 $47 $74 forward $112 $-1 #
-74 edge $-1 -1 -1 $-1 $113 2.1316282072803e-016 $114 3.1415926535897931 $73 $115 forward @7 unknown F #
-75 coedge $-1 -1 -1 $-1 $49 $48 $116 $117 forward $18 $-1 #
-76 coedge $-1 -1 -1 $-1 $118 $119 $48 $77 reversed $120 $-1 #
-77 edge $-1 -1 -1 $-1 $82 0 $121 0.0050000000000000001 $48 $122 forward @7 unknown F #
-78 coedge $-1 -1 -1 $-1 $119 $118 $49 $79 forward $120 $-1 #
-79 edge $-1 -1 -1 $-1 $83 0 $123 0.0050000000000000001 $78 $124 forward @7 unknown F #
-80 coedge $-1 -1 -1 $-1 $50 $50 $118 $125 forward $81 $-1 #
-81 loop $-1 -1 -1 $-1 $-1 $80 $126 F unknown #
-82 vertex $-1 -1 -1 $-1 $77 $127 #
-83 vertex $-1 -1 -1 $-1 $51 $128 #
-84 ellipse-curve $-1 -1 -1 $-1 0.30405133842121779 53.973858142510899 18.964388203991223 0 -1 0 -10.938882772079772 0 16.743382086624443 1 I I #
-85 coedge $-1 -1 -1 $-1 $90 $90 $57 $87 reversed $53 $-1 #
-86 edge $-1 -1 -1 $-1 $63 0 $62 3.1415926535897931 $55 $129 forward @7 unknown F #
-87 edge $-1 -1 -1 $-1 $92 0 $88 3.1415926535897931 $57 $130 forward @7 unknown F #
-88 vertex $-1 -1 -1 $-1 $58 $131 #
-89 straight-curve $-1 -1 -1 $-1 0.30405133842120985 0.97385814251089819 11.464388203991231 -2.3136524044288984e-014 -981.99170112099659 -188.92405598412157 I I #
-90 coedge $-1 -1 -1 $-1 $85 $85 $59 $91 reversed $53 $-1 #
-91 edge $-1 -1 -1 $-1 $88 -3.1415926535897931 $92 0 $59 $132 forward @7 unknown F #
-92 vertex $-1 -1 -1 $-1 $91 $133 #
-93 straight-curve $-1 -1 -1 $-1 0.30405133842121079 0.97385814251089819 26.464388203991231 0 -981.99170112099659 188.92405598412157 I I #
-94 point $-1 -1 -1 $-1 0.30405133842121002 13.973858142510899 13.965440631409823 #
-95 point $-1 -1 -1 $-1 0.30405133842121079 13.973858142510899 23.963335776572638 #
-96 rgb_color-st-attrib $-1 -1 $-1 $66 $44 2 1 2 1 1 1 1 1 1 1 1 1 1 1 0 1 1 1 1 1 1 #
-97 integer_attrib-name_attrib-gen-attrib $-1 -1 $-1 $-1 $67 2 1 2 1 1 1 1 1 1 1 1 1 1 1 0 1 1 1 @13 Boss-Extrude3 0 #
-98 face $134 -1 -1 $-1 $135 $136 $9 $-1 $137 forward single F T 0 2.3999999999999999 -3.1415926535897931 0 #
-99 loop $-1 -1 -1 $-1 $-1 $138 $67 F unknown #
-100 plane-surface $-1 -1 -1 $-1 0.30405133842121779 13.973858142510899 18.964388203991223 0 -1 0 -546.94413860398868 0 837.16910433122234 forward_v I I I I #
-101 coedge $-1 -1 -1 $-1 $139 $140 $102 $141 reversed $68 $-1 #
-102 coedge $-1 -1 -1 $-1 $142 $70 $101 $141 forward $45 $-1 #
-103 coedge $-1 -1 -1 $-1 $70 $142 $143 $144 reversed $45 $-1 #
-104 coedge $-1 -1 -1 $-1 $138 $138 $70 $105 forward $99 $-1 #
-105 edge $-1 -1 -1 $-1 $145 -1.4210854715201997e-016 $146 3.1415926535897931 $104 $147 forward @7 unknown F #
-106 coedge $-1 -1 -1 $-1 $72 $71 $148 $149 forward $29 $-1 #
-107 coedge $-1 -1 -1 $-1 $150 $151 $71 $108 reversed $136 $-1 #
-108 edge $-1 -1 -1 $-1 $113 0 $152 0.024 $71 $153 forward @7 unknown F #
-109 coedge $-1 -1 -1 $-1 $151 $150 $72 $110 forward $136 $-1 #
-110 edge $-1 -1 -1 $-1 $114 0 $154 0.024 $109 $155 forward @7 unknown F #
-111 coedge $-1 -1 -1 $-1 $73 $73 $150 $156 forward $112 $-1 #
-112 loop $-1 -1 -1 $-1 $-1 $111 $135 F unknown #
-113 vertex $-1 -1 -1 $-1 $108 $157 #
-114 vertex $-1 -1 -1 $-1 $74 $158 #
-115 ellipse-curve $-1 -1 -1 $-1 0.30405133842121779 29.973858142510899 18.964388203991223 0 -1 0 -5.4694413860398869 0 8.3716910433122234 1 I I #
-116 coedge $-1 -1 -1 $-1 $159 $159 $75 $117 reversed $160 $-1 #
-117 edge $-1 -1 -1 $-1 $121 -1.4210854715202002e-016 $123 3.1415926535897931 $75 $161 forward @7 unknown F #
-118 coedge $-1 -1 -1 $-1 $78 $76 $80 $125 reversed $120 $-1 #
-119 coedge $-1 -1 -1 $-1 $76 $78 $159 $162 forward $120 $-1 #
-120 loop $-1 -1 -1 $-1 $-1 $76 $163 F unknown #
-121 vertex $-1 -1 -1 $-1 $77 $164 #
-122 straight-curve $-1 -1 -1 $-1 -10.634831433658556 53.973858142510899 35.70777029061567 0 1000 0 I I #
-123 vertex $-1 -1 -1 $-1 $117 $165 #
-124 straight-curve $-1 -1 -1 $-1 11.24293411050099 53.973858142510899 2.2210061173667803 0 1000 0 I I #
-125 edge $-1 -1 -1 $-1 $83 -3.1415926535897931 $82 -1.4210854715202002e-016 $80 $166 forward @7 unknown F #
-126 face $167 -1 -1 $-1 $168 $169 $9 $-1 $170 forward single F F #
-127 point $-1 -1 -1 $-1 -10.634831433658556 53.973858142510899 35.70777029061567 #
-128 point $-1 -1 -1 $-1 11.24293411050099 53.973858142510899 2.2210061173667803 #
-129 ellipse-curve $-1 -1 -1 $-1 0.30405133842121079 13.973858142510899 18.964388203991231 0 1 0 0 0 4.9989475725814083 1 I I #
-130 ellipse-curve $-1 -1 -1 $-1 0.30405133842121079 0.97385814251089819 18.964388203991231 0 1 0 0 0 7.5 1 I I #
-131 point $-1 -1 -1 $-1 0.30405133842120985 0.97385814251089819 11.464388203991231 #
-132 ellipse-curve $-1 -1 -1 $-1 0.30405133842121079 0.97385814251089819 18.964388203991231 0 1 0 0 0 7.5 1 I I #
-133 point $-1 -1 -1 $-1 0.30405133842121079 0.97385814251089819 26.464388203991231 #
-134 integer_attrib-name_attrib-gen-attrib $-1 -1 $171 $-1 $98 2 1 2 1 1 1 1 1 1 1 1 1 1 1 0 1 1 1 @13 Boss-Extrude3 0 #
-135 face $172 -1 -1 $-1 $163 $173 $9 $-1 $174 forward single F F #
-136 loop $-1 -1 -1 $-1 $-1 $107 $98 F unknown #
-137 cone-surface $-1 -1 -1 $-1 0.30405133842121779 29.973858142510899 18.964388203991223 0 1 0 5.4694413860398869 0 -8.3716910433122234 1 I I 0 1 10 forward I I I I #
-138 coedge $-1 -1 -1 $-1 $104 $104 $139 $175 forward $99 $-1 #
-139 coedge $-1 -1 -1 $-1 $143 $101 $138 $175 reversed $68 $-1 #
-140 coedge $-1 -1 -1 $-1 $101 $143 $176 $177 forward $68 $-1 #
-141 edge $-1 -1 -1 $-1 $145 0 $178 0.016 $102 $179 forward @7 unknown F #
-142 coedge $-1 -1 -1 $-1 $103 $102 $180 $181 forward $45 $-1 #
-143 coedge $-1 -1 -1 $-1 $140 $139 $103 $144 forward $68 $-1 #
-144 edge $-1 -1 -1 $-1 $146 0 $182 0.016 $143 $183 forward @7 unknown F #
-145 vertex $-1 -1 -1 $-1 $141 $184 #
-146 vertex $-1 -1 -1 $-1 $105 $185 #
-147 ellipse-curve $-1 -1 -1 $-1 0.30405133842121779 13.973858142510899 18.964388203991223 0 -1 0 -2.7347206930199435 0 4.1858455216561117 1 I I #
-148 coedge $-1 -1 -1 $-1 $186 $186 $106 $149 reversed $169 $-1 #
-149 edge $-1 -1 -1 $-1 $152 2.1316282072803e-016 $154 3.1415926535897931 $106 $187 forward @7 unknown F #
-150 coedge $-1 -1 -1 $-1 $109 $107 $111 $156 reversed $136 $-1 #
-151 coedge $-1 -1 -1 $-1 $107 $109 $186 $188 forward $136 $-1 #
-152 vertex $-1 -1 -1 $-1 $108 $189 #
-153 straight-curve $-1 -1 -1 $-1 -5.1653900476186703 29.973858142510899 27.336079247303445 0 1000 0 I I #
-154 vertex $-1 -1 -1 $-1 $149 $190 #
-155 straight-curve $-1 -1 -1 $-1 5.7734927244611045 29.973858142510899 10.592697160679 0 1000 0 I I #
-156 edge $-1 -1 -1 $-1 $114 -3.1415926535897931 $113 2.1316282072803e-016 $111 $191 forward @7 unknown F #
-157 point $-1 -1 -1 $-1 -5.1653900476186703 29.973858142510899 27.336079247303445 #
-158 point $-1 -1 -1 $-1 5.7734927244611045 29.973858142510899 10.592697160679 #
-159 coedge $-1 -1 -1 $-1 $116 $116 $119 $162 reversed $160 $-1 #
-160 loop $-1 -1 -1 $-1 $-1 $159 $168 F unknown #
-161 ellipse-curve $-1 -1 -1 $-1 0.30405133842121779 58.973858142510899 18.964388203991223 0 -1 0 -10.938882772079772 0 16.743382086624443 1 I I #
-162 edge $-1 -1 -1 $-1 $123 -3.1415926535897931 $121 -1.4210854715202002e-016 $119 $192 forward @7 unknown F #
-163 face $193 -1 -1 $-1 $126 $120 $9 $-1 $194 forward single F T 0 0.25000000000000006 -3.1415926535897931 0 #
-164 point $-1 -1 -1 $-1 -10.634831433658556 58.973858142510899 35.70777029061567 #
-165 point $-1 -1 -1 $-1 11.24293411050099 58.973858142510899 2.2210061173667803 #
-166 ellipse-curve $-1 -1 -1 $-1 0.30405133842121779 53.973858142510899 18.964388203991223 0 -1 0 -10.938882772079772 0 16.743382086624443 1 I I #
-167 integer_attrib-name_attrib-gen-attrib $-1 -1 $-1 $-1 $126 2 1 2 1 1 1 1 1 1 1 1 1 1 1 0 1 1 1 @13 Boss-Extrude3 0 #
-168 face $195 -1 -1 $-1 $-1 $160 $9 $-1 $196 reversed single F F #
-169 loop $-1 -1 -1 $-1 $81 $186 $126 F unknown #
-170 plane-surface $-1 -1 -1 $-1 0.30405133842121779 53.973858142510899 18.964388203991223 0 -1 0 -546.94413860398868 0 837.16910433122234 forward_v I I I I #
-171 rgb_color-st-attrib $-1 -1 $-1 $134 $98 2 1 2 1 1 1 1 1 1 1 1 1 1 1 0 1 1 1 1 1 1 #
-172 integer_attrib-name_attrib-gen-attrib $-1 -1 $-1 $-1 $135 2 1 2 1 1 1 1 1 1 1 1 1 1 1 0 1 1 1 @13 Boss-Extrude3 0 #
-173 loop $-1 -1 -1 $-1 $112 $176 $135 F unknown #
-174 plane-surface $-1 -1 -1 $-1 0.30405133842121779 29.973858142510899 18.964388203991223 0 -1 0 -546.94413860398868 0 837.16910433122234 forward_v I I I I #
-175 edge $-1 -1 -1 $-1 $146 -3.1415926535897931 $145 -1.4210854715201997e-016 $138 $197 forward @7 unknown F #
-176 coedge $-1 -1 -1 $-1 $180 $180 $140 $177 reversed $173 $-1 #
-177 edge $-1 -1 -1 $-1 $182 -3.1415926535897931 $178 -1.4210854715201997e-016 $140 $198 forward @7 unknown F #
-178 vertex $-1 -1 -1 $-1 $141 $199 #
-179 straight-curve $-1 -1 -1 $-1 -2.4306693545987264 13.973858142510899 23.150233725647336 0 1000 0 I I #
-180 coedge $-1 -1 -1 $-1 $176 $176 $142 $181 reversed $173 $-1 #
-181 edge $-1 -1 -1 $-1 $178 -1.4210854715201997e-016 $182 3.1415926535897931 $142 $200 forward @7 unknown F #
-182 vertex $-1 -1 -1 $-1 $181 $201 #
-183 straight-curve $-1 -1 -1 $-1 3.0387720314411615 13.973858142510899 14.778542682335111 0 1000 0 I I #
-184 point $-1 -1 -1 $-1 -2.4306693545987264 13.973858142510899 23.150233725647336 #
-185 point $-1 -1 -1 $-1 3.0387720314411615 13.973858142510899 14.778542682335111 #
-186 coedge $-1 -1 -1 $-1 $148 $148 $151 $188 reversed $169 $-1 #
-187 ellipse-curve $-1 -1 -1 $-1 0.30405133842121779 53.973858142510899 18.964388203991223 0 -1 0 -5.4694413860398869 0 8.3716910433122234 1 I I #
-188 edge $-1 -1 -1 $-1 $154 -3.1415926535897931 $152 2.1316282072803e-016 $151 $202 forward @7 unknown F #
-189 point $-1 -1 -1 $-1 -5.1653900476186703 53.973858142510899 27.336079247303445 #
-190 point $-1 -1 -1 $-1 5.7734927244611045 53.973858142510899 10.592697160679 #
-191 ellipse-curve $-1 -1 -1 $-1 0.30405133842121779 29.973858142510899 18.964388203991223 0 -1 0 -5.4694413860398869 0 8.3716910433122234 1 I I #
-192 ellipse-curve $-1 -1 -1 $-1 0.30405133842121779 58.973858142510899 18.964388203991223 0 -1 0 -10.938882772079772 0 16.743382086624443 1 I I #
-193 integer_attrib-name_attrib-gen-attrib $-1 -1 $203 $-1 $163 2 1 2 1 1 1 1 1 1 1 1 1 1 1 0 1 1 1 @13 Boss-Extrude3 0 #
-194 cone-surface $-1 -1 -1 $-1 0.30405133842121779 53.973858142510899 18.964388203991223 0 1 0 10.938882772079772 0 -16.743382086624443 1 I I 0 1 19.999999999999996 forward I I I I #
-195 integer_attrib-name_attrib-gen-attrib $-1 -1 $204 $-1 $168 2 1 2 1 1 1 1 1 1 1 1 1 1 1 0 1 1 1 @13 Boss-Extrude3 0 #
-196 plane-surface $-1 -1 -1 $-1 0.30405133842121779 58.973858142510899 18.964388203991223 0 -1 0 -546.94413860398868 0 837.16910433122234 forward_v I I I I #
-197 ellipse-curve $-1 -1 -1 $-1 0.30405133842121779 13.973858142510899 18.964388203991223 0 -1 0 -2.7347206930199435 0 4.1858455216561117 1 I I #
-198 ellipse-curve $-1 -1 -1 $-1 0.30405133842121779 29.973858142510899 18.964388203991223 0 -1 0 -2.7347206930199435 0 4.1858455216561117 1 I I #
-199 point $-1 -1 -1 $-1 -2.4306693545987264 29.973858142510899 23.150233725647336 #
-200 ellipse-curve $-1 -1 -1 $-1 0.30405133842121779 29.973858142510899 18.964388203991223 0 -1 0 -2.7347206930199435 0 4.1858455216561117 1 I I #
-201 point $-1 -1 -1 $-1 3.0387720314411615 29.973858142510899 14.778542682335111 #
-202 ellipse-curve $-1 -1 -1 $-1 0.30405133842121779 53.973858142510899 18.964388203991223 0 -1 0 -5.4694413860398869 0 8.3716910433122234 1 I I #
-203 rgb_color-st-attrib $-1 -1 $-1 $193 $163 2 1 2 1 1 1 1 1 1 1 1 1 1 1 0 1 1 1 0.20000000000000001 0.20000000000000001 0.20000000000000001 #
-204 rgb_color-st-attrib $-1 -1 $-1 $195 $168 2 1 2 1 1 1 1 1 1 1 1 1 1 1 0 1 1 1 0.20000000000000001 0.20000000000000001 0.20000000000000001 #
End-of-ACIS-data 